<svg xmlns="http://www.w3.org/2000/svg" version="1.1" xmlns:xlink="http://www.w3.org/1999/xlink" width="512" height="512"><svg version="1.1" xmlns="http://www.w3.org/2000/svg" width="512" height="512">
<path d="M0 0 C2.5339773 2.23540013 5.00060565 4.52748247 7.45703125 6.84765625 C8.28074219 7.5953125 9.10445312 8.34296875 9.953125 9.11328125 C25.04217565 23.33135706 34.96852996 43.03499819 40.45703125 62.84765625 C40.77671875 63.98332031 41.09640625 65.11898437 41.42578125 66.2890625 C48.97113654 98.67121227 41.70179278 130.63884737 25.45703125 158.84765625 C24.79703125 159.83765625 24.13703125 160.82765625 23.45703125 161.84765625 C23.26166698 171.55179628 25.17347806 181.35418217 26.7421875 190.8984375 C26.96568668 192.29164704 27.18844409 193.68497576 27.4105072 195.07841492 C28.22494218 200.17959342 29.05155417 205.27877829 29.87969971 210.37774658 C30.58420739 214.717251 31.28304331 219.05759229 31.9741497 223.39925194 C32.29655412 225.41020665 32.62711502 227.41970556 32.95802307 229.42927551 C34.00050701 235.96775163 34.91838857 242.22416238 34.45703125 248.84765625 C33.79703125 249.50765625 33.13703125 250.16765625 32.45703125 250.84765625 C26.15949661 250.75458924 22.86946438 248.39358788 18.20703125 244.59765625 C16.80239649 243.49756693 15.39471257 242.40136237 13.984375 241.30859375 C13.24944824 240.73850586 12.51452148 240.16841797 11.75732422 239.58105469 C7.86279515 236.64631086 3.81578394 233.94228862 -0.23046875 231.22265625 C-5.81272639 227.45263088 -11.29514256 223.61821939 -16.60546875 219.47265625 C-17.61996094 218.68503906 -18.63445312 217.89742187 -19.6796875 217.0859375 C-21.56411056 215.61284826 -23.44193529 214.13127247 -25.3125 212.640625 C-26.17230469 211.98707031 -27.03210938 211.33351563 -27.91796875 210.66015625 C-28.64757812 210.08910156 -29.3771875 209.51804687 -30.12890625 208.9296875 C-35.46086743 206.53979552 -42.14126941 209.41271903 -47.60546875 210.84765625 C-66.34991239 215.74213728 -88.78556941 216.12783223 -107.54296875 210.84765625 C-108.77144531 210.50734375 -109.99992187 210.16703125 -111.265625 209.81640625 C-141.20301158 200.65253197 -167.04222349 180.10824127 -182.54296875 152.84765625 C-198.06021058 122.96794407 -202.14134372 89.02073556 -192.2109375 56.6328125 C-187.40022607 42.17657947 -180.22073554 28.6116261 -170.54296875 16.84765625 C-170.11935059 16.32913086 -169.69573242 15.81060547 -169.25927734 15.27636719 C-149.97268824 -7.91976367 -121.38008232 -23.12453938 -91.48828125 -26.8359375 C-58.23216883 -29.50301186 -25.81082308 -21.84602691 0 0 Z M-95.10546875 74.22265625 C-100.50075851 81.01917668 -101.46936254 87.30820582 -100.54296875 95.84765625 C-98.74536761 103.02668358 -94.66889538 107.82173644 -88.54296875 111.84765625 C-82.27795985 115.1212645 -76.37788099 115.44872616 -69.54296875 113.84765625 C-62.61968267 111.57268658 -57.96026238 107.31736901 -54.5078125 100.93359375 C-51.80601936 94.62522093 -51.55067476 88.25097939 -53.66796875 81.72265625 C-56.45650261 75.21175394 -60.83193326 70.41959774 -67.3515625 67.57421875 C-77.79019886 64.11328049 -87.49754147 66.07818437 -95.10546875 74.22265625 Z M-153.00390625 72.99609375 C-158.00626781 79.01416324 -160.434199 85.26049989 -160.0234375 93.109375 C-158.77150327 100.24438226 -155.25992353 106.26924247 -149.484375 110.66015625 C-142.70108591 114.80929082 -136.26607023 115.65678341 -128.54296875 113.84765625 C-120.88851103 111.33242591 -116.60950544 106.42965319 -112.66796875 99.59765625 C-110.55193624 92.54421456 -110.51868467 86.29959396 -113.60546875 79.53515625 C-117.34372843 72.95665459 -121.502004 69.27938691 -128.73046875 66.97265625 C-137.43112749 64.58853874 -146.4560426 66.69649034 -153.00390625 72.99609375 Z M-35.84765625 73.83984375 C-40.68233692 79.5657098 -42.30077603 85.63684292 -41.98828125 93.07421875 C-40.83980422 100.22701426 -37.24924183 106.27736333 -31.484375 110.66015625 C-24.70108591 114.80929082 -18.26607023 115.65678341 -10.54296875 113.84765625 C-3.61454571 111.57099859 0.9920554 107.32181996 4.4921875 100.96875 C7.14192618 94.86818886 7.68293668 88.54171796 5.578125 82.19921875 C2.55394233 75.55200535 -1.19704903 70.61150947 -8.07421875 67.8203125 C-18.5051562 64.49161628 -27.84840157 66.09967424 -35.84765625 73.83984375 Z " fill="#A98FE0" transform="translate(332.54296875,142.15234375)"></path>
<path d="M0 0 C31.79492927 27.71248531 53.11087976 66.21870028 57.20654297 108.47509766 C57.45454941 112.81319405 57.4169096 117.13531192 57.20654297 121.47509766 C57.77501953 121.63365234 58.34349609 121.79220703 58.92919922 121.95556641 C67.26488852 124.47436401 72.57002481 127.72337178 77.16357422 135.21728516 C79.60449752 140.50138129 80.4590406 145.5543745 80.49707031 151.33740234 C80.50378754 151.98399811 80.51050476 152.63059387 80.51742554 153.29678345 C80.53626926 155.41359353 80.54032301 157.53008415 80.54248047 159.64697266 C80.54891891 161.13519413 80.55564802 162.62341438 80.56265259 164.1116333 C80.57459209 167.22500539 80.57833696 170.33826681 80.57714844 173.45166016 C80.57694568 177.4134173 80.60421768 181.37445369 80.63869286 185.3360405 C80.66108931 188.40927293 80.66498208 191.48233555 80.66392899 194.55564117 C80.66626698 196.01468635 80.67498723 197.47373753 80.69059372 198.93270111 C80.78821632 209.00297269 79.69162399 217.44322666 74.58154297 226.28759766 C65.58090196 234.57766174 57.16495368 235.684705 45.41821289 235.71533203 C43.14872126 235.72507757 40.88012054 235.75613108 38.61083984 235.78759766 C37.17269418 235.79412417 35.73454205 235.79937602 34.29638672 235.80322266 C32.98532959 235.81256836 31.67427246 235.82191406 30.32348633 235.83154297 C28.78059937 235.65510254 28.78059937 235.65510254 27.20654297 235.47509766 C25.1103849 232.33086055 24.95599452 231.61519939 24.95257568 228.03442383 C24.94693604 227.12590668 24.94129639 226.21738953 24.93548584 225.28134155 C24.94155853 223.78977036 24.94155853 223.78977036 24.94775391 222.26806641 C24.94249695 220.69455917 24.94249695 220.69455917 24.93713379 219.08926392 C24.92831443 215.61364164 24.93416644 212.13822208 24.94091797 208.66259766 C24.93957138 206.25268515 24.9376309 203.8427729 24.93511963 201.43286133 C24.93216808 196.37887997 24.93646704 191.32496925 24.94580078 186.27099609 C24.95719526 179.78407672 24.95063596 173.29732284 24.93865585 166.81040955 C24.93143812 161.83311714 24.9337248 156.85586413 24.93891144 151.87857056 C24.94024817 149.48629741 24.9385994 147.09402072 24.93395233 144.70175171 C24.92888859 141.36178065 24.93659541 138.02207978 24.94775391 134.68212891 C24.94370544 133.68774811 24.93965698 132.69336731 24.93548584 131.66885376 C24.94112549 130.76033661 24.94676514 129.85181946 24.95257568 128.91577148 C24.95370676 127.73112053 24.95370676 127.73112053 24.95486069 126.52253723 C25.20654297 124.47509766 25.20654297 124.47509766 27.20654297 121.47509766 C29.26953125 121.04272461 29.26953125 121.04272461 31.77685547 120.96337891 C32.67275391 120.92792969 33.56865234 120.89248047 34.49169922 120.85595703 C35.89742188 120.82211914 35.89742188 120.82211914 37.33154297 120.78759766 C38.27642578 120.7534375 39.22130859 120.71927734 40.19482422 120.68408203 C42.53194549 120.60145653 44.86868488 120.53235778 47.20654297 120.47509766 C43.86484465 74.0404539 24.81357457 37.12142609 -9.59814453 6.15087891 C-40.12384356 -20.0153628 -81.89299753 -31.26660913 -121.51416016 -28.32275391 C-159.72295101 -24.57540765 -198.95798738 -6.54739792 -223.95751953 23.20556641 C-224.56337891 23.95451172 -225.16923828 24.70345703 -225.79345703 25.47509766 C-226.94974609 26.89242187 -226.94974609 26.89242187 -228.12939453 28.33837891 C-248.44146035 53.70573411 -260.98555991 84.79738085 -262.61767578 117.39306641 C-262.79345703 119.47509766 -262.79345703 119.47509766 -263.79345703 121.47509766 C-262.85493896 121.45153198 -262.85493896 121.45153198 -261.89746094 121.42749023 C-259.07121772 121.36525091 -256.24511842 121.32614304 -253.41845703 121.28759766 C-252.43361328 121.26246094 -251.44876953 121.23732422 -250.43408203 121.21142578 C-249.02255859 121.19692383 -249.02255859 121.19692383 -247.58251953 121.18212891 C-246.27855225 121.15856323 -246.27855225 121.15856323 -244.94824219 121.13452148 C-243.88162354 121.30310669 -243.88162354 121.30310669 -242.79345703 121.47509766 C-240.71143807 124.5981261 -240.54762499 125.23113937 -240.58227539 128.76582336 C-240.58556351 129.64161545 -240.58885162 130.51740753 -240.59223938 131.41973877 C-240.60578964 132.3781366 -240.6193399 133.33653442 -240.63330078 134.32397461 C-240.64232674 135.8417173 -240.64232674 135.8417173 -240.65153503 137.39012146 C-240.6647456 139.59182076 -240.68188649 141.79349912 -240.70245361 143.99514198 C-240.74103305 148.68940801 -240.74319244 153.38345884 -240.74725342 158.07786083 C-240.75498422 166.81750337 -240.77620534 175.55642216 -240.86523438 184.2956543 C-240.92575625 190.37499574 -240.93694339 196.45275277 -240.91653442 202.5323391 C-240.91780454 204.84024244 -240.936901 207.1482127 -240.974823 209.45580482 C-241.20732299 224.21137675 -240.17241197 233.61075098 -229.79345703 244.47509766 C-228.21006639 246.28754759 -226.62672329 248.10003906 -225.04345703 249.91259766 C-224.30353516 250.70408203 -223.56361328 251.49556641 -222.80126953 252.31103516 C-221.07991389 254.16634844 -219.49688612 256.06230639 -217.91845703 258.03759766 C-213.8165813 262.85136917 -208.77311305 266.61686552 -203.79345703 270.47509766 C-202.91431641 271.15830078 -202.03517578 271.84150391 -201.12939453 272.54541016 C-186.47749727 283.5667488 -161.83007307 299.47509766 -142.79345703 299.47509766 C-141.85357971 298.03171462 -140.91549151 296.58711834 -139.98876953 295.13525391 C-136.54799785 290.35640435 -132.35996835 287.94650292 -126.79345703 286.47509766 C-123.94336058 286.1734632 -121.11113633 286.12398367 -118.24658203 286.10400391 C-117.43533875 286.09497543 -116.62409546 286.08594696 -115.78826904 286.0766449 C-114.07714497 286.06219138 -112.36596625 286.05326789 -110.65478516 286.04956055 C-108.06462142 286.03769461 -105.47686685 285.98849059 -102.88720703 285.93798828 C-86.07661009 285.77181676 -86.07661009 285.77181676 -78.79345703 291.47509766 C-73.45860971 296.89429039 -70.92496122 302.32999617 -70.73095703 309.92041016 C-71.0342428 316.11881305 -72.59005182 320.84540371 -76.79345703 325.47509766 C-83.8254929 331.32238836 -89.55109631 332.61916255 -98.58642578 332.71337891 C-99.33249588 332.72145065 -100.07856598 332.7295224 -100.84724426 332.73783875 C-102.42312332 332.75162608 -103.99903156 332.76237199 -105.57495117 332.77026367 C-107.17009369 332.78175582 -108.76519859 332.80216387 -110.36010742 332.83178711 C-130.47243921 333.20466203 -130.47243921 333.20466203 -137.68237305 326.79614258 C-141.74599689 322.50957359 -144.59989681 317.5075411 -144.98095703 311.53759766 C-144.91908203 310.85697266 -144.85720703 310.17634766 -144.79345703 309.47509766 C-145.93943359 309.36294922 -147.08541016 309.25080078 -148.26611328 309.13525391 C-152.78729506 308.56427224 -156.92632162 307.37933754 -161.23095703 305.91259766 C-162.39776001 305.51560669 -162.39776001 305.51560669 -163.58813477 305.1105957 C-187.07442626 296.88315581 -206.63930445 283.33467551 -224.79345703 266.47509766 C-225.75832031 265.60884766 -225.75832031 265.60884766 -226.74267578 264.72509766 C-234.33850764 257.59106689 -242.51965086 248.16790456 -247.12011719 238.76293945 C-248.59174248 236.22492225 -248.59174248 236.22492225 -251.36206055 235.89501953 C-252.8769104 235.91918945 -252.8769104 235.91918945 -254.42236328 235.94384766 C-255.540625 235.93740234 -256.65888672 235.93095703 -257.81103516 235.92431641 C-260.1469783 235.95777895 -262.482916 235.99162385 -264.81884766 236.02587891 C-274.06031371 235.97304034 -280.56736024 234.05809276 -287.66845703 228.03759766 C-293.52308738 220.97760223 -296.02328189 214.84357992 -296.08398438 205.61279297 C-296.0907016 204.9661972 -296.09741882 204.31960144 -296.1043396 203.65341187 C-296.12318333 201.53660178 -296.12723707 199.42011117 -296.12939453 197.30322266 C-296.13583297 195.81500118 -296.14256209 194.32678093 -296.14956665 192.83856201 C-296.16150616 189.72518992 -296.16525103 186.6119285 -296.1640625 183.49853516 C-296.16385974 179.53677801 -296.19113174 175.57574162 -296.22560692 171.61415482 C-296.24800338 168.54092239 -296.25189614 165.46785977 -296.25084305 162.39455414 C-296.25318104 160.93550896 -296.26190129 159.47645778 -296.27750778 158.0174942 C-296.37604527 147.85284722 -295.87686825 136.74496373 -288.55517578 128.82275391 C-284.43144346 125.66823584 -278.10007269 121.47509766 -272.79345703 121.47509766 C-272.80723389 120.8627124 -272.82101074 120.25032715 -272.83520508 119.61938477 C-273.27171429 85.2795663 -259.30497522 49.91633876 -237.79345703 23.47509766 C-237.34099609 22.91580566 -236.88853516 22.35651367 -236.42236328 21.78027344 C-221.94834855 4.00645793 -205.01319207 -9.74870265 -184.79345703 -20.52490234 C-183.72095703 -21.11916016 -182.64845703 -21.71341797 -181.54345703 -22.32568359 C-123.56050924 -53.16331267 -49.25731081 -41.8814543 0 0 Z " fill="#AE8EDE" transform="translate(363.79345703125,109.52490234375)"></path>
<path d="M0 0 C3.89490901 3.23350936 6.51938349 6.1231513 7.19921875 11.28515625 C7.2899841 17.70226675 6.91116838 21.6485681 2.86328125 26.734375 C-1.90851148 30.45637333 -5.67230502 31.39232699 -11.70703125 31.1171875 C-16.88702515 30.30104698 -20.02518275 27.99216574 -23.51171875 24.046875 C-26.22116542 18.52377217 -26.74990242 13.99548979 -25.13671875 8.046875 C-22.50525589 3.68851464 -19.15485786 -0.21663763 -14.21484375 -1.93359375 C-9.3543584 -2.71017506 -4.2981761 -2.54590321 0 0 Z " fill="#9299E9" transform="translate(324.13671875,218.265625)"></path>
<path d="M0 0 C3.89490901 3.23350936 6.51938349 6.1231513 7.19921875 11.28515625 C7.2899841 17.70226675 6.91116838 21.6485681 2.86328125 26.734375 C-1.8544648 30.41421692 -5.65994721 31.4426061 -11.63671875 31.1875 C-16.91253981 30.23125743 -20.6795487 27.47357796 -24.07421875 23.421875 C-26.43574541 17.44860168 -26.81013483 12.51915358 -24.2890625 6.62890625 C-21.94890587 2.78153009 -18.50683536 -0.44668227 -14.21484375 -1.9296875 C-9.35675508 -2.71501762 -4.29637083 -2.54483391 0 0 Z " fill="#C685D5" transform="translate(206.13671875,218.265625)"></path>
<path d="M0 0 C4.41026006 2.45014448 7.08812558 5.30125117 9.375 9.875 C9.97020744 15.47845293 10.49654174 21.08849855 7.25 25.9375 C4.05362535 29.58795573 0.90539333 31.53984857 -3.984375 32.1875 C-10.08633585 32.48335265 -13.75399925 31.57696057 -18.625 27.875 C-23.12726645 23.25729082 -23.06648869 18.91170979 -23.05859375 12.77734375 C-22.12907928 6.5554586 -18.40165931 3.45749448 -13.625 -0.125 C-8.76198037 -1.74600654 -4.8836414 -1.51561285 0 0 Z " fill="#AC8FDF" transform="translate(262.625,217.125)"></path>
</svg><style>@media (prefers-color-scheme: light) { :root { filter: none; } }
@media (prefers-color-scheme: dark) { :root { filter: none; } }
</style></svg>